<svg width="404" height="127" viewBox="0 0 404 127" fill="none" xmlns="http://www.w3.org/2000/svg">
<path d="M207.057 31.8151C208.813 33.3863 209.922 34.7726 210.384 35.9741C210.939 37.1755 210.939 38.4232 210.384 39.7171C209.922 40.9186 208.905 42.3973 207.334 44.1533L163.388 95.031C161.817 96.6946 160.431 97.8036 159.229 98.3582C158.028 99.0051 156.826 99.0975 155.625 98.6354C154.516 98.1733 153.176 97.2953 151.604 96.0014C150.033 94.4303 148.97 93.0902 148.416 91.9811C147.861 90.7796 147.861 89.532 148.416 88.2381C149.063 86.9442 150.126 85.4654 151.604 83.8019L195.551 32.9242C197.861 30.4288 199.756 29.0887 201.234 28.9039C202.806 28.719 204.746 29.6894 207.057 31.8151ZM151.743 31.8151C153.314 30.4288 154.654 29.5508 155.763 29.1811C156.965 28.8114 158.12 28.9501 159.229 29.597C160.431 30.1515 161.771 31.2606 163.249 32.9242L207.196 83.8019C208.767 85.4654 209.83 86.9442 210.384 88.2381C210.939 89.532 210.985 90.7796 210.523 91.9811C210.061 93.0902 208.952 94.4303 207.196 96.0014C205.624 97.3877 204.238 98.2657 203.037 98.6354C201.928 99.0975 200.772 99.0051 199.571 98.3582C198.462 97.8036 197.075 96.6946 195.412 95.031L151.466 44.1533C149.987 42.4897 148.97 41.011 148.416 39.7171C147.861 38.4232 147.861 37.1755 148.416 35.9741C148.97 34.6802 150.079 33.2939 151.743 31.8151Z" fill="white"/>
<path d="M269.537 97.9423C266.857 97.9423 264.87 97.4339 263.576 96.4173C262.282 95.4007 261.635 94.0144 261.635 92.2584L262.606 87.6835C261.866 88.885 260.618 90.3175 258.862 91.9811C257.106 93.5523 254.796 94.9848 251.931 96.2787C249.066 97.4802 245.6 98.0809 241.534 98.0809C237.19 98.0809 233.077 97.2029 229.195 95.4469C225.406 93.5985 222.033 91.1031 219.075 87.9608C216.21 84.7261 213.9 81.0754 212.144 77.0089C210.48 72.85 209.648 68.4138 209.648 63.7003C209.648 59.1717 210.48 54.9203 212.144 50.9462C213.9 46.8797 216.256 43.2753 219.214 40.133C222.171 36.9907 225.545 34.5415 229.334 32.7855C233.216 30.9371 237.282 30.0129 241.534 30.0129C245.323 30.0129 248.511 30.5212 251.099 31.5379C253.779 32.5545 256.044 33.8484 257.892 35.4195C259.74 36.8983 261.265 38.4694 262.467 40.133L261.635 36.1127C261.635 34.0794 262.282 32.5545 263.576 31.5379C264.87 30.4288 266.903 29.8743 269.676 29.8743C272.263 29.8743 274.112 30.2902 275.221 31.122C276.33 31.8613 277.023 32.9242 277.3 34.3105C277.578 35.6044 277.716 37.0831 277.716 38.7467V89.4857C277.716 91.0569 277.578 92.4894 277.3 93.7833C277.023 95.0772 276.284 96.0938 275.082 96.8332C273.973 97.5726 272.125 97.9423 269.537 97.9423ZM244.029 81.861C247.171 81.861 249.99 81.0754 252.485 79.5043C254.981 77.9331 256.968 75.8075 258.447 73.1273C260.018 70.3546 260.803 67.3047 260.803 63.9776C260.803 60.3732 260.018 57.2309 258.447 54.5507C256.875 51.8705 254.796 49.791 252.208 48.3122C249.713 46.7411 246.894 45.9555 243.752 45.9555C240.332 45.9555 237.282 46.7873 234.602 48.4509C231.922 50.022 229.796 52.1939 228.225 54.9666C226.746 57.6468 226.007 60.6966 226.007 64.1162C226.007 67.4434 226.792 70.447 228.364 73.1273C229.935 75.8075 232.06 77.9331 234.741 79.5043C237.513 81.0754 240.609 81.861 244.029 81.861Z" fill="white"/>
<path d="M320.212 98.2195C315.683 98.2195 311.802 97.7574 308.567 96.8332C305.332 95.909 302.698 94.4765 300.665 92.5356C298.632 90.5948 297.107 88.0994 296.09 85.0495C295.166 81.9072 294.704 78.2104 294.704 73.959V15.1794C294.704 13.5158 294.842 12.0833 295.12 10.8818C295.489 9.68033 296.229 8.75612 297.338 8.10917C298.539 7.3698 300.388 7.00012 302.883 7.00012C305.471 7.00012 307.319 7.3698 308.428 8.10917C309.63 8.84853 310.369 9.86517 310.646 11.1591C311.016 12.3605 311.201 13.7006 311.201 15.1794V73.4045C311.201 75.3454 311.339 76.9165 311.617 78.118C311.986 79.3195 312.495 80.2437 313.142 80.8906C313.881 81.4451 314.805 81.861 315.914 82.1383C317.116 82.3231 318.548 82.4156 320.212 82.4156C321.968 82.4156 323.447 82.5542 324.648 82.8314C325.942 83.1087 326.912 83.8019 327.559 84.9109C328.206 85.9275 328.53 87.6373 328.53 90.0403C328.53 92.6281 328.114 94.5227 327.282 95.7242C326.543 96.8332 325.526 97.5264 324.232 97.8036C323.031 98.0809 321.691 98.2195 320.212 98.2195ZM289.02 31.2606L303.299 31.3992L322.43 30.8447C324.001 30.8447 325.387 31.0295 326.589 31.3992C327.883 31.6765 328.899 32.4159 329.639 33.6173C330.378 34.7264 330.748 36.5748 330.748 39.1626C330.748 41.5655 330.378 43.3677 329.639 44.5692C328.899 45.7707 327.929 46.5563 326.728 46.9259C325.526 47.2032 324.14 47.3418 322.569 47.3418L303.992 47.0646L288.604 47.2032C286.293 47.1108 284.676 46.4638 283.752 45.2624C282.92 43.9685 282.504 41.889 282.504 39.024C282.504 36.3437 283.012 34.4029 284.029 33.2014C285.138 31.9075 286.802 31.2606 289.02 31.2606Z" fill="white"/>
<path d="M392.821 97.9423C390.141 97.9423 388.153 97.4339 386.86 96.4173C385.566 95.4007 384.919 94.0144 384.919 92.2584L385.889 87.6835C385.15 88.885 383.902 90.3175 382.146 91.9811C380.39 93.5523 378.08 94.9848 375.215 96.2787C372.35 97.4802 368.884 98.0809 364.817 98.0809C360.473 98.0809 356.361 97.2029 352.479 95.4469C348.69 93.5985 345.316 91.1031 342.359 87.9608C339.494 84.7261 337.183 81.0754 335.427 77.0089C333.764 72.85 332.932 68.4138 332.932 63.7003C332.932 59.1717 333.764 54.9203 335.427 50.9462C337.183 46.8797 339.54 43.2753 342.498 40.133C345.455 36.9907 348.828 34.5415 352.618 32.7855C356.499 30.9371 360.566 30.0129 364.817 30.0129C368.606 30.0129 371.795 30.5212 374.383 31.5379C377.063 32.5545 379.327 33.8484 381.176 35.4195C383.024 36.8983 384.549 38.4694 385.751 40.133L384.919 36.1127C384.919 34.0794 385.566 32.5545 386.86 31.5379C388.153 30.4288 390.187 29.8743 392.959 29.8743C395.547 29.8743 397.396 30.2902 398.505 31.122C399.614 31.8613 400.307 32.9242 400.584 34.3105C400.861 35.6044 401 37.0831 401 38.7467V89.4857C401 91.0569 400.861 92.4894 400.584 93.7833C400.307 95.0772 399.567 96.0938 398.366 96.8332C397.257 97.5726 395.409 97.9423 392.821 97.9423ZM367.313 81.861C370.455 81.861 373.274 81.0754 375.769 79.5043C378.264 77.9331 380.252 75.8075 381.73 73.1273C383.301 70.3546 384.087 67.3047 384.087 63.9776C384.087 60.3732 383.301 57.2309 381.73 54.5507C380.159 51.8705 378.08 49.791 375.492 48.3122C372.996 46.7411 370.178 45.9555 367.035 45.9555C363.616 45.9555 360.566 46.7873 357.886 48.4509C355.205 50.022 353.08 52.1939 351.509 54.9666C350.03 57.6468 349.291 60.6966 349.291 64.1162C349.291 67.4434 350.076 70.447 351.647 73.1273C353.218 75.8075 355.344 77.9331 358.024 79.5043C360.797 81.0754 363.893 81.861 367.313 81.861Z" fill="white"/>
<path d="M8.67386 11.2205C10.6886 8.53893 14.5757 8.55628 16.9512 10.9246L43.3067 37.201C51.4384 45.3081 56.0158 56.3102 56.0293 67.7889C56.0418 78.4136 52.1443 88.6407 45.1309 96.5476C44.1942 97.6036 42.5699 97.6008 41.5703 96.6043L12.7217 67.8445C4.58986 59.7373 0.0134676 48.7335 2.91495e-05 37.2547C-0.0109259 27.8127 3.06633 18.685 8.67386 11.2205ZM98.9785 10.7469C101.354 8.37847 105.241 8.36189 107.256 11.0437C112.863 18.5083 115.941 27.6359 115.93 37.0779C115.916 48.5566 111.34 59.5596 103.208 67.6668L74.3594 96.4266C73.3598 97.4231 71.7355 97.4259 70.7989 96.3699C63.7853 88.463 59.888 78.2359 59.9004 67.6111C59.914 56.1325 64.4903 45.1294 72.6221 37.0223L98.9785 10.7469Z" fill="url(#paint0_radial_47_328)"/>
<path d="M22.1737 119.686C19.8033 122.06 15.9268 122.083 13.8075 119.482C7.93862 112.28 4.03305 103.974 2.75618 95.8036C1.3612 86.877 3.20641 78.769 7.89915 72.9023C8.78088 71.8 10.4111 71.8058 11.4107 72.8024L38.449 99.7589C39.4502 100.757 39.4521 102.379 38.4532 103.379L22.1737 119.686Z" fill="url(#paint1_linear_47_328)"/>
<path d="M102.123 119.304C100.004 121.905 96.1274 121.882 93.7569 119.508L77.4774 103.201C76.4785 102.201 76.4804 100.579 77.4817 99.581L104.52 72.6245C105.52 71.6279 107.15 71.6221 108.032 72.7244C112.724 78.591 114.569 86.6991 113.174 95.6256C111.898 103.796 107.992 112.102 102.123 119.304Z" fill="url(#paint2_linear_47_328)"/>
<defs>
<radialGradient id="paint0_radial_47_328" cx="0" cy="0" r="1" gradientUnits="userSpaceOnUse" gradientTransform="translate(58.2029 62.6872) rotate(81.2247) scale(110.102 102.323)">
<stop stop-color="#AA95FF"/>
<stop offset="0.545752" stop-color="#9176FF"/>
<stop offset="0.696007" stop-color="#7F62F3"/>
</radialGradient>
<linearGradient id="paint1_linear_47_328" x1="51.1792" y1="97.3078" x2="15.0533" y2="131.929" gradientUnits="userSpaceOnUse">
<stop offset="0.15" stop-color="#AA95FF"/>
<stop offset="0.65" stop-color="#9176FF"/>
<stop offset="0.93" stop-color="#7F62F3"/>
</linearGradient>
<linearGradient id="paint2_linear_47_328" x1="66.232" y1="96.3039" x2="102.358" y2="130.925" gradientUnits="userSpaceOnUse">
<stop offset="0.147972" stop-color="#AA95FF"/>
<stop offset="0.64954" stop-color="#9176FF"/>
<stop offset="0.931715" stop-color="#7F62F3"/>
</linearGradient>
</defs>
</svg>
